<?xml version="1.0" encoding="UTF-8" standalone="no"?>
<!-- Generator: Adobe Illustrator 19.0.0, SVG Export Plug-In . SVG Version: 6.00 Build 0)  -->

<svg
   version="1.1"
   id="Layer_1"
   x="0px"
   y="0px"
   viewBox="0 0 311.633 311.633"
   style="enable-background:new 0 0 311.633 311.633;"
   xml:space="preserve"
   sodipodi:docname="icon.svg"
   inkscape:version="1.1.2 (0a00cf5339, 2022-02-04)"
   inkscape:export-filename="/home/valerio/eclipse-workspace/prestomanagerswing/icon.png"
   inkscape:export-xdpi="96"
   inkscape:export-ydpi="96"
   xmlns:inkscape="http://www.inkscape.org/namespaces/inkscape"
   xmlns:sodipodi="http://sodipodi.sourceforge.net/DTD/sodipodi-0.dtd"
   xmlns="http://www.w3.org/2000/svg"
   xmlns:svg="http://www.w3.org/2000/svg"
   xmlns:rdf="http://www.w3.org/1999/02/22-rdf-syntax-ns#"
   xmlns:cc="http://creativecommons.org/ns#"
   xmlns:dc="http://purl.org/dc/elements/1.1/"><metadata
   id="metadata352"><rdf:RDF><cc:Work
       rdf:about=""><dc:format>image/svg+xml</dc:format><dc:type
         rdf:resource="http://purl.org/dc/dcmitype/StillImage" /><dc:title /></cc:Work></rdf:RDF></metadata><defs
   id="defs350" /><sodipodi:namedview
   pagecolor="#ffffff"
   bordercolor="#666666"
   borderopacity="1"
   objecttolerance="10"
   gridtolerance="10"
   guidetolerance="10"
   inkscape:pageopacity="0"
   inkscape:pageshadow="2"
   inkscape:window-width="1366"
   inkscape:window-height="704"
   id="namedview348"
   showgrid="false"
   inkscape:zoom="1.1935134"
   inkscape:cx="131.96332"
   inkscape:cy="161.28851"
   inkscape:window-x="0"
   inkscape:window-y="27"
   inkscape:window-maximized="1"
   inkscape:current-layer="Layer_1"
   inkscape:pagecheckerboard="0" />
<g
   inkscape:groupmode="layer"
   id="layer1"
   inkscape:label="Bulb"><ellipse
     style="fill:#5fbcd3;fill-opacity:1;stroke:#030000;stroke-width:4.93744;stroke-linejoin:miter;stroke-miterlimit:4;stroke-dasharray:none;stroke-opacity:1"
     id="path4180"
     cx="155.89639"
     cy="155.87425"
     rx="153.42767"
     ry="153.40553" /></g>
<g
   id="g317">
</g>
<g
   id="g319">
</g>
<g
   id="g321">
</g>
<g
   id="g323">
</g>
<g
   id="g325">
</g>
<g
   id="g327">
</g>
<g
   id="g329">
</g>
<g
   id="g331">
</g>
<g
   id="g333">
</g>
<g
   id="g335">
</g>
<g
   id="g337">
</g>
<g
   id="g339">
</g>
<g
   id="g341">
</g>
<g
   id="g343">
</g>
<g
   id="g345">
</g>
<g
   inkscape:groupmode="layer"
   id="layer2"
   inkscape:label="Hat" /><g
   id="g309"
   transform="matrix(0.75,0,0,0.75,39.107,10.629418)"><g
     id="g244">
	<g
   id="g242">
		<g
   id="g240">
			<path
   d="m 222.028,214.727 c 0.292,0 0.584,-0.06 0.868,-0.192 l 32.716,-15.112 c 1.036,-0.476 1.488,-1.704 1.008,-2.74 -0.48,-1.04 -1.716,-1.488 -2.74,-1.008 l -32.716,15.112 c -1.036,0.476 -1.488,1.704 -1.008,2.74 0.348,0.756 1.088,1.2 1.872,1.2 z"
   id="path220" />
			<path
   d="m 194.692,225.287 c 0.348,0.756 1.092,1.2 1.872,1.2 0.292,0 0.584,-0.064 0.868,-0.192 l 13.872,-6.408 c 1.036,-0.476 1.484,-1.704 1.008,-2.74 -0.484,-1.04 -1.712,-1.492 -2.74,-1.008 l -13.872,6.408 c -1.036,0.476 -1.488,1.704 -1.008,2.74 z"
   id="path222" />
			<path
   d="m 213.468,227.631 c 0.348,0.76 1.1,1.212 1.884,1.212 0.284,0 0.576,-0.064 0.856,-0.184 l 38.48,-17.44 c 1.036,-0.472 1.496,-1.696 1.028,-2.736 -0.468,-1.032 -1.692,-1.48 -2.736,-1.028 l -38.48,17.44 c -1.04,0.472 -1.5,1.696 -1.032,2.736 z"
   id="path224" />
			<path
   d="m 312.856,242.155 c 0,-7.068 -9.936,-12.576 -31.276,-17.34 -1.56,-0.348 -3.168,0.644 -3.52,2.236 -0.36,1.588 0.648,3.168 2.236,3.52 26.36,5.888 26.66,11.352 26.66,11.584 0,9.096 -57.264,21.78 -150.528,21.78 -93.26,0 -150.528,-12.684 -150.528,-21.78 0,-0.232 0.304,-5.704 26.664,-11.588 1.588,-0.352 2.592,-1.932 2.236,-3.52 -0.352,-1.596 -1.944,-2.58 -3.52,-2.236 C 9.94,229.575 0,235.083 0,242.155 c 0,13.06 38.696,20.764 83.036,24.604 -0.596,0.376 -1.012,1.02 -0.992,1.78 0.172,6.604 5.488,11.992 11.896,12.112 2.204,0.436 20.208,3.728 63.784,3.728 40.016,0 61.636,-3.716 61.492,-3.724 6.512,0 11.944,-5.436 12.116,-12.116 0.02,-0.784 -0.416,-1.452 -1.048,-1.816 44.144,-3.856 82.572,-11.552 82.572,-24.568 z M 227.2,268.431 c -0.112,4.46 -3.696,8.092 -8.344,8.124 -0.212,0.036 -21.524,3.688 -61.132,3.688 -45.144,0 -62.964,-3.64 -63.136,-3.676 -0.136,-0.028 -0.284,-0.044 -0.424,-0.044 -4.292,0 -7.872,-3.632 -7.988,-8.092 -0.016,-0.58 -0.272,-1.092 -0.668,-1.456 23.892,1.984 49.232,2.864 70.924,2.864 21.924,0 47.572,-0.9 71.688,-2.928 -0.516,0.348 -0.9,0.852 -0.92,1.52 z"
   id="path226" />
			<path
   d="m 40.4,241.679 c 0.824,2.392 1.96,5.668 70.972,7.548 18.964,0.516 39.1,0.776 58.388,0.776 16.208,0 31.812,-0.18 45.608,-0.552 56.176,-1.504 57.676,-5.188 58.668,-7.62 3.296,-8.092 3.456,-8.728 3.324,-13.58 -0.028,-0.96 -0.056,-2.128 -0.056,-3.652 0,-44.132 -28.724,-83.792 -73.176,-101.036 -1.512,-0.576 -3.224,0.168 -3.816,1.688 -0.592,1.516 0.168,3.228 1.688,3.82 42.16,16.356 69.4,53.856 69.4,95.532 0,1.584 0.032,2.808 0.064,3.808 0.1,3.756 0.1,3.848 -2.676,10.672 -12.724,6.8 -206.124,6.576 -223.124,-0.216 l -0.42,-1.196 c -1.788,-5.084 -2.16,-6.144 -2.16,-13.068 0,-40.152 25.864,-77.092 65.892,-94.104 1.496,-0.64 2.196,-2.368 1.56,-3.868 -0.644,-1.504 -2.372,-2.196 -3.872,-1.56 -42.208,17.936 -69.484,57.004 -69.484,99.532 0,7.616 0.52,9.404 2.496,15.024 z"
   id="path228" />
			<path
   d="m 68.292,197.431 c -1.072,-0.34 -2.244,0.272 -2.58,1.364 -1.388,4.472 -2.404,9.056 -3.036,13.616 -0.156,1.128 0.632,2.172 1.764,2.324 0.096,0.012 0.192,0.02 0.284,0.02 1.012,0 1.9,-0.752 2.04,-1.784 0.596,-4.332 1.572,-8.692 2.892,-12.956 0.336,-1.088 -0.276,-2.248 -1.364,-2.584 z"
   id="path230" />
			<path
   d="m 70.828,192.927 c 0.796,0 1.56,-0.468 1.896,-1.248 4.968,-11.524 12.424,-22.044 21.552,-30.428 0.844,-0.768 0.896,-2.08 0.124,-2.916 -0.772,-0.844 -2.08,-0.896 -2.912,-0.124 -9.56,8.772 -17.36,19.78 -22.556,31.836 -0.456,1.044 0.028,2.26 1.076,2.708 0.268,0.12 0.548,0.172 0.82,0.172 z"
   id="path232" />
			<path
   d="m 101.736,150.067 c -0.932,0.648 -1.172,1.936 -0.524,2.876 0.404,0.576 1.044,0.892 1.7,0.892 0.408,0 0.812,-0.12 1.176,-0.368 16.304,-11.252 36.56,-17.448 57.056,-17.448 h 0.02 c 1.136,0 2.064,-0.924 2.064,-2.068 0,-1.144 -0.82,-2.112 -2.084,-2.064 -21.324,0 -42.424,6.456 -59.408,18.18 z"
   id="path234" />
			<path
   d="m 115.376,124.927 c 0.144,0.388 0.364,0.712 0.632,1 1.664,2.42 3.976,4.396 6.736,5.564 0.264,0.112 0.54,0.164 0.812,0.164 0.808,0 1.58,-0.476 1.912,-1.268 0.452,-1.06 -0.044,-2.28 -1.1,-2.728 -0.976,-0.412 -1.876,-0.984 -2.692,-1.656 22.408,-6.668 47.128,-6.892 69.632,-0.504 0.712,5.4 4.312,10.192 9.352,12.324 0.264,0.108 0.536,0.164 0.808,0.164 0.808,0 1.584,-0.476 1.92,-1.272 0.448,-1.056 -0.048,-2.28 -1.112,-2.728 -3.772,-1.596 -6.556,-5.404 -6.92,-9.476 -0.356,-3.964 1.404,-8.108 4.708,-11.088 0.596,-0.54 1.244,-1.052 1.884,-1.56 1.84,-1.456 3.748,-2.96 4.884,-5.232 1.008,-1.996 1.152,-4.124 1.164,-5.76 0.032,-5.808 -1.78,-11.7 -5.1,-16.58 -0.648,-0.956 -1.944,-1.188 -2.892,-0.548 -0.952,0.648 -1.196,1.94 -0.548,2.888 2.848,4.192 4.4,9.244 4.376,14.212 -0.012,1.752 -0.236,2.96 -0.72,3.916 -0.724,1.444 -2.196,2.604 -3.752,3.836 -0.712,0.568 -1.428,1.128 -2.092,1.732 -2.812,2.54 -4.732,5.772 -5.596,9.184 -2.44,-0.664 -4.896,-1.292 -7.376,-1.812 0.004,-0.02 0.016,-0.04 0.016,-0.064 0.016,-0.224 0.028,-0.448 0.028,-0.676 0,-14.284 -11.904,-25.9 -26.532,-25.9 -3.904,0 -7.664,0.812 -11.172,2.396 -9.328,4.236 -15.356,13.456 -15.356,23.5 0,0.156 0.008,0.348 0.024,0.592 -4.472,0.892 -8.896,1.964 -13.224,3.328 -0.316,-0.876 -0.556,-1.78 -0.64,-2.704 -0.352,-3.964 1.404,-8.112 4.704,-11.092 0.596,-0.536 1.24,-1.04 1.876,-1.548 1.844,-1.46 3.756,-2.968 4.896,-5.232 1.012,-2.008 1.148,-4.136 1.16,-5.76 0.036,-5.8 -1.776,-11.688 -5.092,-16.584 -0.648,-0.948 -1.932,-1.192 -2.892,-0.552 -0.952,0.648 -1.196,1.944 -0.556,2.892 2.856,4.196 4.408,9.252 4.38,14.216 -0.008,1.744 -0.228,2.952 -0.712,3.916 -0.728,1.444 -2.204,2.604 -3.76,3.836 -0.716,0.564 -1.428,1.128 -2.092,1.728 -4.264,3.856 -6.532,9.292 -6.06,14.552 0.212,2.28 0.952,4.448 2.084,6.384 z m 28.16,-9.248 c 0.684,-7.104 6.788,-12.704 14.284,-12.704 7.48,0 13.572,5.58 14.26,12.828 -9.472,-1.06 -19.064,-1.104 -28.544,-0.124 z m 4.816,-18.452 c 2.968,-1.352 6.152,-2.032 9.464,-2.032 12.224,0 22.156,9.576 22.344,21.784 -1.284,-0.224 -2.568,-0.46 -3.86,-0.648 -0.348,-9.696 -8.476,-17.492 -18.48,-17.492 -9.96,0 -18.048,7.724 -18.468,17.36 -1.308,0.176 -2.616,0.308 -3.916,0.524 0.096,-8.328 5.136,-15.964 12.916,-19.496 z"
   id="path236" />
			<path
   d="m 161.804,85.967 c 0.276,0.124 0.568,0.184 0.856,0.184 0.792,0 1.552,-0.456 1.896,-1.228 0.472,-1.048 0.004,-2.28 -1.044,-2.752 -3.8,-1.708 -6.6,-5.792 -6.968,-10.164 -0.36,-4.276 1.416,-8.732 4.748,-11.928 0.604,-0.572 1.248,-1.112 1.888,-1.656 1.84,-1.536 3.736,-3.128 4.864,-5.508 0.992,-2.088 1.128,-4.308 1.136,-6.008 0.032,-6.108 -1.764,-12.316 -5.064,-17.468 -0.628,-0.976 -1.924,-1.252 -2.876,-0.628 -0.968,0.616 -1.252,1.908 -0.628,2.872 2.868,4.488 4.436,9.888 4.408,15.208 -0.008,1.884 -0.236,3.192 -0.732,4.244 -0.736,1.556 -2.212,2.796 -3.78,4.104 -0.716,0.596 -1.428,1.2 -2.092,1.84 -4.232,4.052 -6.48,9.764 -6.016,15.276 0.496,5.924 4.188,11.268 9.404,13.612 z"
   id="path238" />
		</g>
	</g>
</g><g
     id="g246">
</g><g
     id="g248">
</g><g
     id="g250">
</g><g
     id="g252">
</g><g
     id="g254">
</g><g
     id="g256">
</g><g
     id="g258">
</g><g
     id="g260">
</g><g
     id="g262">
</g><g
     id="g264">
</g><g
     id="g266">
</g><g
     id="g268">
</g><g
     id="g270">
</g><g
     id="g272">
</g><g
     id="g274">
</g></g></svg>
