<?xml version="1.0" encoding="iso-8859-1"?>
<!-- Generator: Adobe Illustrator 19.0.0, SVG Export Plug-In . SVG Version: 6.00 Build 0)  -->
<svg version="1.1" id="Layer_1" xmlns="http://www.w3.org/2000/svg" xmlns:xlink="http://www.w3.org/1999/xlink" x="0px" y="0px"
	 viewBox="0 0 304 304" style="enable-background:new 0 0 304 304;" xml:space="preserve">
<g>
	<g>
		<g>
			<path d="M218.56,286.304L218.56,286.304c13.012,0,23.596-10.588,23.596-23.604V40.108c0-12.776-10.22-23.156-22.908-23.528
				C218.844,7.38,211.292,0,201.992,0c-6.848,0-12.724,4.028-15.536,9.808C183.644,4.028,177.764,0,170.916,0
				c-6.488,0-12.084,3.624-15.052,8.912C152.892,3.624,147.296,0,140.812,0c-5.944,0-11.196,3.016-14.316,7.592
				C123.372,3.016,118.12,0,112.172,0c-6.484,0-12.08,3.624-15.052,8.912C94.152,3.624,88.556,0,82.072,0
				c-9.368,0-16.976,7.484-17.276,16.776C53.04,18.112,43.844,28.004,43.844,40.108V262.7c0,13.016,10.588,23.604,23.6,23.604
				H218.56z M50.2,262.7V40.108c0-8.924,6.844-16.2,15.544-17.068c1.584,4.54,4.984,8.316,9.584,10.26
				c0.404,0.172,0.824,0.256,1.236,0.256c1.24,0,2.416-0.728,2.928-1.94c0.684-1.616-0.072-3.48-1.688-4.164
				c-4.076-1.724-6.708-5.696-6.708-10.116c0-6.052,4.924-10.972,10.976-10.972c5.768,0,10.46,4.488,10.892,10.152h-9.98
				c-1.756,0-3.176,1.424-3.176,3.176c0,1.756,1.42,3.18,3.176,3.18H95.78c1.556,4.616,4.992,8.464,9.648,10.432
				c0.404,0.172,0.828,0.256,1.236,0.256c1.24,0,2.416-0.728,2.928-1.94c0.684-1.616-0.072-3.48-1.688-4.164
				c-4.076-1.724-6.708-5.696-6.708-10.116c0-6.052,4.924-10.972,10.976-10.972c5.772,0,10.464,4.488,10.892,10.152h-10.892
				c-1.756,0-3.176,1.424-3.176,3.176c0,1.756,1.424,3.18,3.176,3.18h12.244c1.552,4.616,4.988,8.464,9.644,10.432
				c0.404,0.172,0.824,0.256,1.236,0.256c1.24,0,2.416-0.728,2.928-1.94c0.684-1.616-0.072-3.48-1.688-4.164
				c-4.072-1.724-6.704-5.696-6.704-10.116c0-6.052,4.924-10.972,10.972-10.972c5.772,0,10.464,4.488,10.892,10.152h-11.16
				c-1.756,0-3.176,1.424-3.176,3.176c0,1.756,1.42,3.18,3.176,3.18h13.972c1.556,4.616,4.992,8.464,9.648,10.432
				c0.404,0.172,0.828,0.256,1.24,0.256c1.24,0,2.416-0.728,2.928-1.94c0.684-1.616-0.072-3.48-1.688-4.164
				c-4.076-1.724-6.708-5.696-6.708-10.116c0-6.052,4.924-10.972,10.976-10.972c5.764,0,10.46,4.488,10.892,10.152h-12.288
				c-1.756,0-3.176,1.424-3.176,3.176c0,1.756,1.42,3.18,3.176,3.18h14.548c0.508,0,0.972-0.144,1.396-0.356
				c1.492,4.78,5.004,8.768,9.784,10.788c0.404,0.172,0.824,0.256,1.236,0.256c1.24,0,2.416-0.728,2.928-1.94
				c0.684-1.616-0.072-3.48-1.688-4.164c-4.072-1.724-6.704-5.692-6.704-10.116c0-6.052,4.924-10.972,10.972-10.972
				c5.772,0,10.464,4.488,10.892,10.152h-15.548c-1.756,0-3.176,1.424-3.176,3.176c0,1.756,1.42,3.18,3.176,3.18h21.22
				c9.508,0,17.244,7.736,17.244,17.24V262.72c0,9.512-7.736,17.244-17.244,17.244h-151.1C57.932,279.944,50.2,272.212,50.2,262.7z"
				/>
			<path d="M78.636,252.152c0,1.228,0.996,2.224,2.224,2.224c1.228,0,2.224-0.996,2.224-2.224v-0.284h27.82
				c1.228,0,2.224-0.992,2.224-2.224s-0.996-2.224-2.224-2.224h-27.82V230.4h18.492c1.228,0,2.224-0.992,2.224-2.224
				s-0.996-2.224-2.224-2.224H83.084v-17.016h99.324c1.228,0,2.224-0.992,2.224-2.224c0-1.228-0.996-2.224-2.224-2.224H83.084
				v-17.02h27.24c1.228,0,2.224-0.992,2.224-2.224c0-1.228-0.996-2.224-2.224-2.224h-27.24v-17.016h106.172
				c1.228,0,2.224-0.992,2.224-2.224c0-1.228-0.996-2.224-2.224-2.224H83.084V144.52h18.492c1.228,0,2.224-0.992,2.224-2.224
				c0-1.228-0.996-2.224-2.224-2.224H83.084v-17.02h92.368c1.228,0,2.224-0.992,2.224-2.224c0-1.228-0.996-2.224-2.224-2.224H83.084
				v-17.016h57.924c1.228,0,2.224-0.992,2.224-2.224c0-1.228-0.996-2.224-2.224-2.224H83.084V80.12h96.464
				c1.228,0,2.224-0.992,2.224-2.224c0-1.228-0.996-2.224-2.224-2.224H83.084v-22.96c0-1.232-0.996-2.224-2.224-2.224
				c-1.228,0-2.224,0.992-2.224,2.224v22.96H65.364c-1.228,0-2.224,0.992-2.224,2.224s0.996,2.224,2.224,2.224h13.272v17.02H65.364
				c-1.228,0-2.224,0.992-2.224,2.224s0.996,2.224,2.224,2.224h13.272v17.016H65.364c-1.228,0-2.224,0.992-2.224,2.224
				s0.996,2.224,2.224,2.224h13.272v17.02H65.364c-1.228,0-2.224,0.992-2.224,2.224s0.996,2.224,2.224,2.224h13.272v17.02H65.364
				c-1.228,0-2.224,0.992-2.224,2.224s0.996,2.224,2.224,2.224h13.272v17.016H65.364c-1.228,0-2.224,0.992-2.224,2.224
				s0.996,2.224,2.224,2.224h13.272v17.02H65.364c-1.228,0-2.224,0.992-2.224,2.224s0.996,2.224,2.224,2.224h13.272v17.016H65.364
				c-1.228,0-2.224,0.992-2.224,2.224c0,1.228,0.996,2.224,2.224,2.224h13.272v17.02H65.364c-1.228,0-2.224,0.992-2.224,2.224
				c0,1.228,0.996,2.224,2.224,2.224h13.272V252.152z"/>
			<path d="M192.364,80.112h27.148c1.228,0,2.224-0.992,2.224-2.224c0-1.228-0.996-2.224-2.224-2.224h-27.148
				c-1.228,0-2.224,0.992-2.224,2.224C190.136,79.12,191.132,80.112,192.364,80.112z"/>
			<path d="M148.772,99.36c0,1.228,0.996,2.224,2.224,2.224h68.516c1.228,0,2.224-0.996,2.224-2.224
				c0-1.228-0.996-2.224-2.224-2.224H151C149.768,97.132,148.772,98.128,148.772,99.36z"/>
			<path d="M219.512,118.6h-33.776c-1.228,0-2.224,0.992-2.224,2.224c0,1.228,0.996,2.224,2.224,2.224h33.776
				c1.228,0,2.224-0.992,2.224-2.224C221.74,119.596,220.744,118.6,219.512,118.6z"/>
			<path d="M219.512,140.072H114.84c-1.228,0-2.224,0.992-2.224,2.224c0,1.228,0.996,2.224,2.224,2.224h104.672
				c1.228,0,2.224-0.992,2.224-2.224C221.74,141.064,220.744,140.072,219.512,140.072z"/>
			<path d="M219.512,161.544h-17.52c-1.228,0-2.224,0.992-2.224,2.224c0,1.228,0.996,2.224,2.224,2.224h17.52
				c1.228,0,2.224-0.992,2.224-2.224C221.74,162.536,220.744,161.544,219.512,161.544z"/>
			<path d="M219.512,183.008h-99.616c-1.228,0-2.224,0.992-2.224,2.224c0,1.228,0.996,2.224,2.224,2.224h99.616
				c1.228,0,2.224-0.992,2.224-2.224C221.74,184.004,220.744,183.008,219.512,183.008z"/>
			<path d="M219.512,204.48H195.96c-1.228,0-2.224,0.992-2.224,2.224c0,1.228,0.996,2.224,2.224,2.224h23.552
				c1.228,0,2.224-0.992,2.224-2.224C221.74,205.472,220.744,204.48,219.512,204.48z"/>
			<path d="M219.512,225.948h-107.5c-1.228,0-2.224,0.992-2.224,2.224c0,1.228,0.996,2.224,2.224,2.224h107.5
				c1.228,0,2.224-0.992,2.224-2.224C221.74,226.94,220.744,225.948,219.512,225.948z"/>
			<path d="M219.512,247.416H189.28c-1.228,0-2.224,0.992-2.224,2.224c0,1.228,0.996,2.224,2.224,2.224h30.232
				c1.228,0,2.224-0.992,2.224-2.224C221.74,248.412,220.744,247.416,219.512,247.416z"/>
			<path d="M176.368,247.416h-54.08c-1.228,0-2.224,0.992-2.224,2.224c0,1.228,0.996,2.224,2.224,2.224h54.08
				c1.228,0,2.224-0.992,2.224-2.224C178.592,248.412,177.596,247.416,176.368,247.416z"/>
			<path d="M249.884,38.352c-1.436-0.984-3.424-0.632-4.42,0.82c-0.996,1.444-0.632,3.42,0.816,4.42
				c4.708,3.24,7.52,8.556,7.52,14.22V280.4c0,9.508-7.736,17.24-17.244,17.24H85.44c-5.24,0-10.14-2.364-13.448-6.484
				c-1.096-1.372-3.1-1.584-4.472-0.488c-1.368,1.096-1.588,3.1-0.488,4.464C71.56,300.768,78.264,304,85.44,304h151.116
				c13.012,0,23.6-10.588,23.6-23.6V57.812C260.156,50.056,256.316,42.78,249.884,38.352z"/>
		</g>
	</g>
</g>
<g>
</g>
<g>
</g>
<g>
</g>
<g>
</g>
<g>
</g>
<g>
</g>
<g>
</g>
<g>
</g>
<g>
</g>
<g>
</g>
<g>
</g>
<g>
</g>
<g>
</g>
<g>
</g>
<g>
</g>
</svg>
